# xmcd
#
# Track frame offsets: 
#        150
#        19960
#        42662
#        70905
#        90662
#        111972
#        132265
#        158117
#        176477
#        201167
#        216027
#        238422
#
# Disc length: 3453 seconds
#
# Revision: 2
# Processed by: cddbd v1.5.2PL0 Copyright (c) Steve Scherf et al.
# Submitted via: ExactAudioCopy v0.99pb3
#
DISCID=b00d7b0c
DTITLE=Carl Weathersby - Looking Out My Window
DYEAR=2000
DGENRE=Blues
TTITLE0=If That Ain't The Blues
TTITLE1=Feel So Bad
TTITLE2=Looking Out My Window
TTITLE3=Do You Call That A Buddy
TTITLE4=Sweet Music
TTITLE5=Hipshakin' Mama
TTITLE6=The Blues Follow Me Around
TTITLE7=Merry Way
TTITLE8=The Whole Story
TTITLE9=Love Shock
TTITLE10=Feels Like Rain
TTITLE11=Standing At The Crossroads
EXTD=
EXTT0=
EXTT1=
EXTT2=
EXTT3=
EXTT4=
EXTT5=
EXTT6=
EXTT7=
EXTT8=
EXTT9=
EXTT10=
EXTT11=
PLAYORDER=
